<svg width="20" height="17" viewBox="0 0 20 17" fill="none" xmlns="http://www.w3.org/2000/svg">
<path d="M17.7273 7.32445H4.99687L9.32288 2.99843C9.7931 2.52821 9.7931 1.77586 9.32288 1.35266C8.85266 0.882445 8.10031 0.882445 7.67712 1.35266L1.32915 7.65361C1.09404 7.88872 1 8.21787 1 8.5C1 8.78213 1.09404 9.11129 1.32915 9.3464L7.63009 15.6473C8.10031 16.1176 8.85266 16.1176 9.27586 15.6473C9.74608 15.1771 9.74608 14.4248 9.27586 14.0016L4.94984 9.67555H17.6803C18.2915 9.67555 18.7618 9.15831 18.7618 8.5C18.7618 7.84169 18.3386 7.32445 17.7273 7.32445Z" fill="#748CAD" stroke="#F0F4F9" stroke-width="0.5"/>
</svg>
