<svg width="17" height="17" viewBox="0 0 17 17" fill="none" xmlns="http://www.w3.org/2000/svg">
<path fill-rule="evenodd" clip-rule="evenodd" d="M11.9396 15.9971C11.6381 15.9974 11.3485 15.8794 11.1329 15.6685L1.33771 5.86919C1.12148 5.65287 1 5.35947 1 5.05354C1 4.74761 1.12148 4.45421 1.33771 4.23789C1.55394 4.02157 1.84722 3.90004 2.15301 3.90004C2.45881 3.90004 2.75209 4.02157 2.96832 4.23789C3.18802 4.44756 3.47999 4.56454 3.78362 4.56454C4.08726 4.56454 4.37923 4.44756 4.59893 4.23789L6.2353 2.61811C7.322 1.5681 8.77746 0.987084 10.2882 1.00022C11.4149 1.01001 12.5051 1.34969 13.4298 1.96509C13.4701 1.90591 13.5161 1.85035 13.5673 1.79924C13.7013 1.66536 13.8663 1.56658 14.0476 1.51166C14.2289 1.45674 14.421 1.44736 14.6067 1.48436C14.7925 1.52136 14.9664 1.6036 15.1128 1.72379C15.2592 1.84398 15.3738 1.99841 15.4463 2.17343C15.5188 2.34844 15.5471 2.53864 15.5285 2.72717C15.51 2.91571 15.4453 3.09677 15.3401 3.25434C15.258 3.37733 15.1533 3.48304 15.0318 3.56604C15.6492 4.49219 15.99 5.58489 15.9998 6.71424C16.0129 8.22563 15.4322 9.68171 14.3826 10.7689L12.752 12.4002C12.6448 12.5072 12.5598 12.6344 12.5018 12.7743C12.4438 12.9143 12.414 13.0643 12.414 13.2158C12.414 13.3673 12.4438 13.5174 12.5018 13.6573C12.5598 13.7973 12.6448 13.9244 12.752 14.0315C12.9133 14.1927 13.0232 14.3982 13.0678 14.622C13.1123 14.8457 13.0895 15.0777 13.0022 15.2884C12.9149 15.4992 12.767 15.6793 12.5774 15.806C12.3877 15.9327 12.1647 16.0002 11.9367 16L11.9396 15.9971ZM13.6026 3.46363C14.4468 4.32529 14.9204 5.48425 14.9204 6.69205C14.9204 7.91523 14.4347 9.0883 13.5702 9.95322L11.9396 11.5845C11.5077 12.0169 11.265 12.6031 11.265 13.2144C11.265 13.8256 11.5077 14.4119 11.9396 14.8442L2.16166 5.06219C2.59384 5.49427 3.17983 5.73699 3.79083 5.73699C4.40182 5.73699 4.98781 5.49427 5.41999 5.06219L7.0506 3.43088C7.91515 2.56597 9.08773 2.08006 10.3104 2.08006C11.5157 2.08006 12.6724 2.55231 13.5333 3.39438C13.5553 3.41841 13.5785 3.44152 13.6026 3.46363ZM6.23529 14.7059C5.77919 14.7063 5.33324 14.5712 4.95389 14.3179C4.57454 14.0646 4.27886 13.7043 4.10427 13.2828C3.92968 12.8613 3.88403 12.3974 3.97311 11.9499C4.06219 11.5024 4.28199 11.0914 4.60468 10.7689C4.7128 10.6607 4.85943 10.6 5.01233 10.6C5.16523 10.6 5.31187 10.6607 5.41998 10.7689C5.5281 10.877 5.58884 11.0237 5.58884 11.1767C5.58884 11.3297 5.5281 11.4764 5.41998 11.5845C5.31284 11.6916 5.22784 11.8188 5.16985 11.9587C5.11186 12.0987 5.08201 12.2487 5.08201 12.4002C5.08201 12.5517 5.11186 12.7017 5.16985 12.8417C5.22784 12.9816 5.31284 13.1088 5.41998 13.2158C5.63969 13.4255 5.93166 13.5425 6.23529 13.5425C6.53892 13.5425 6.83089 13.4255 7.05059 13.2158C7.15871 13.1077 7.30535 13.0469 7.45825 13.0469C7.61115 13.0469 7.75778 13.1077 7.8659 13.2158C7.97401 13.324 8.03475 13.4707 8.03475 13.6237C8.03475 13.7766 7.97401 13.9233 7.8659 14.0315C7.6517 14.2455 7.39745 14.4153 7.11766 14.531C6.83788 14.6467 6.53804 14.7062 6.23529 14.7059Z" fill="#0F8CFF"/>
<path d="M11.1329 15.6685L11.0622 15.7392L11.063 15.74L11.1329 15.6685ZM11.9396 15.9971L12.0103 16.0678L12.181 15.8969L11.9395 15.8971L11.9396 15.9971ZM1.33771 5.86919L1.40844 5.7985L1.33771 5.86919ZM1.33771 4.23789L1.40844 4.30859L1.40844 4.30859L1.33771 4.23789ZM2.96832 4.23789L2.89757 4.30861L2.89928 4.31023L2.96832 4.23789ZM4.59893 4.23789L4.66798 4.31025L4.66928 4.30896L4.59893 4.23789ZM6.2353 2.61811L6.16581 2.5462L6.16495 2.54704L6.2353 2.61811ZM10.2882 1.00022L10.2891 0.900222L10.2882 1.00022ZM13.4298 1.96509L13.3743 2.04834L13.4566 2.10312L13.5124 2.02145L13.4298 1.96509ZM13.5673 1.79924L13.4966 1.72849V1.72849L13.5673 1.79924ZM14.0476 1.51166L14.0766 1.60737L14.0476 1.51166ZM14.6067 1.48436L14.6263 1.38629V1.38629L14.6067 1.48436ZM15.1128 1.72379L15.1762 1.64649V1.64649L15.1128 1.72379ZM15.4463 2.17343L15.3539 2.21171L15.4463 2.17343ZM15.5285 2.72717L15.6281 2.73695L15.5285 2.72717ZM15.3401 3.25434L15.257 3.19882V3.19882L15.3401 3.25434ZM15.0318 3.56604L14.9754 3.48347L14.8937 3.53924L14.9486 3.6215L15.0318 3.56604ZM15.9998 6.71424L16.0998 6.71337L15.9998 6.71424ZM14.3826 10.7689L14.4533 10.8396L14.4545 10.8383L14.3826 10.7689ZM12.752 12.4002L12.8227 12.4709L12.8227 12.4709L12.752 12.4002ZM12.752 14.0315L12.6813 14.1022V14.1022L12.752 14.0315ZM13.0678 14.622L13.1658 14.6024V14.6024L13.0678 14.622ZM13.0022 15.2884L13.0946 15.3267L13.0022 15.2884ZM12.5774 15.806L12.5218 15.7228L12.5774 15.806ZM11.9367 16L11.8659 15.9293L11.6956 16.0998L11.9366 16.1L11.9367 16ZM13.6026 3.46363L13.6741 3.39355L13.6702 3.38995L13.6026 3.46363ZM13.5702 9.95322L13.4994 9.88252L13.5702 9.95322ZM11.9396 11.5845L11.8688 11.5138L11.8688 11.5139L11.9396 11.5845ZM11.9396 14.8442L11.8688 14.9149L12.0103 14.7736L11.9396 14.8442ZM2.16166 5.06219L2.23236 4.99147L2.09093 5.13288L2.16166 5.06219ZM5.41999 5.06219L5.4907 5.13291L5.49072 5.13288L5.41999 5.06219ZM7.0506 3.43088L6.97988 3.36019L7.0506 3.43088ZM13.5333 3.39438L13.607 3.32661L13.6032 3.32289L13.5333 3.39438ZM6.23529 14.7059L6.23537 14.6059H6.23521L6.23529 14.7059ZM4.10427 13.2828L4.19666 13.2445L4.10427 13.2828ZM4.60468 10.7689L4.67537 10.8396L4.67541 10.8396L4.60468 10.7689ZM5.41998 11.5845L5.49067 11.6553L5.49071 11.6552L5.41998 11.5845ZM5.16985 11.9587L5.26223 11.997H5.26223L5.16985 11.9587ZM5.16985 12.8417L5.26223 12.8034L5.16985 12.8417ZM5.41998 13.2158L5.34928 13.2866L5.35094 13.2882L5.41998 13.2158ZM7.05059 13.2158L7.11965 13.2882L7.12132 13.2865L7.05059 13.2158ZM7.8659 13.2158L7.79517 13.2865H7.79517L7.8659 13.2158ZM7.8659 14.0315L7.93658 14.1022L7.93662 14.1022L7.8659 14.0315ZM7.11766 14.531L7.07944 14.4386H7.07944L7.11766 14.531ZM11.063 15.74C11.2972 15.9692 11.612 16.0974 11.9396 16.0971L11.9395 15.8971C11.6641 15.8974 11.3997 15.7896 11.2028 15.5971L11.063 15.74ZM1.26698 5.93989L11.0622 15.7392L11.2036 15.5979L1.40844 5.7985L1.26698 5.93989ZM0.9 5.05354C0.9 5.38598 1.032 5.70481 1.26698 5.93989L1.40844 5.7985C1.21095 5.60093 1.1 5.33296 1.1 5.05354H0.9ZM1.26698 4.16719C1.032 4.40228 0.9 4.72111 0.9 5.05354H1.1C1.1 4.77412 1.21095 4.50615 1.40844 4.30859L1.26698 4.16719ZM2.15301 3.80004C1.82068 3.80004 1.50197 3.93211 1.26698 4.16719L1.40844 4.30859C1.60592 4.11102 1.87375 4.00004 2.15301 4.00004V3.80004ZM3.03905 4.16719C2.80406 3.93211 2.48535 3.80004 2.15301 3.80004V4.00004C2.43228 4.00004 2.70011 4.11102 2.89759 4.30859L3.03905 4.16719ZM3.78362 4.46454C3.50571 4.46454 3.23846 4.35747 3.03736 4.16555L2.89928 4.31023C3.13758 4.53765 3.45427 4.66454 3.78362 4.66454V4.46454ZM4.52989 4.16555C4.32878 4.35747 4.06154 4.46454 3.78362 4.46454V4.66454C4.11297 4.66454 4.42967 4.53765 4.66797 4.31023L4.52989 4.16555ZM6.16495 2.54704L4.52858 4.16682L4.66928 4.30896L6.30565 2.68918L6.16495 2.54704ZM10.2891 0.900222C8.7521 0.88686 7.27137 1.47796 6.16581 2.5462L6.30479 2.69003C7.37263 1.65823 8.80283 1.08731 10.2873 1.10021L10.2891 0.900222ZM13.4852 1.88185C12.5445 1.25577 11.4353 0.910187 10.2891 0.900222L10.2873 1.10021C11.3945 1.10984 12.4658 1.44362 13.3743 2.04834L13.4852 1.88185ZM13.5124 2.02145C13.5492 1.9674 13.5912 1.91667 13.638 1.86999L13.4966 1.72849C13.441 1.78404 13.391 1.84442 13.3471 1.90874L13.5124 2.02145ZM13.638 1.86999C13.7604 1.74773 13.911 1.65752 14.0766 1.60737L14.0186 1.41596C13.8216 1.47565 13.6423 1.58299 13.4966 1.72849L13.638 1.86999ZM14.0766 1.60737C14.2422 1.55721 14.4175 1.54865 14.5872 1.58244L14.6263 1.38629C14.4244 1.34608 14.2156 1.35627 14.0186 1.41596L14.0766 1.60737ZM14.5872 1.58244C14.7569 1.61623 14.9156 1.69133 15.0493 1.80108L15.1762 1.64649C15.0171 1.51587 14.8282 1.4265 14.6263 1.38629L14.5872 1.58244ZM15.0493 1.80108C15.1831 1.91084 15.2877 2.05188 15.3539 2.21171L15.5387 2.13515C15.4599 1.94495 15.3354 1.77711 15.1762 1.64649L15.0493 1.80108ZM15.3539 2.21171C15.4201 2.37153 15.4459 2.54522 15.429 2.7174L15.6281 2.73695C15.6482 2.53205 15.6175 2.32535 15.5387 2.13515L15.3539 2.21171ZM15.429 2.7174C15.4121 2.88958 15.353 3.05493 15.257 3.19882L15.4233 3.30986C15.5376 3.13862 15.6079 2.94184 15.6281 2.73695L15.429 2.7174ZM15.257 3.19882C15.182 3.31114 15.0863 3.40768 14.9754 3.48347L15.0882 3.6486C15.2202 3.55841 15.3341 3.44352 15.4233 3.30986L15.257 3.19882ZM16.0998 6.71337C16.0898 5.56444 15.7431 4.45278 15.115 3.51057L14.9486 3.6215C15.5552 4.53159 15.8902 5.60535 15.8998 6.71511L16.0998 6.71337ZM14.4545 10.8383C15.5223 9.7323 16.1131 8.25096 16.0998 6.71337L15.8998 6.71511C15.9127 8.20029 15.342 9.63111 14.3106 10.6994L14.4545 10.8383ZM12.8227 12.4709L14.4533 10.8396L14.3119 10.6982L12.6812 12.3295L12.8227 12.4709ZM12.5942 12.8126C12.6472 12.6848 12.7248 12.5687 12.8227 12.4709L12.6813 12.3294C12.5648 12.4458 12.4725 12.584 12.4095 12.7361L12.5942 12.8126ZM12.514 13.2158C12.514 13.0775 12.5413 12.9404 12.5942 12.8126L12.4095 12.7361C12.3464 12.8882 12.314 13.0512 12.314 13.2158H12.514ZM12.5942 13.619C12.5413 13.4912 12.514 13.3542 12.514 13.2158H12.314C12.314 13.3805 12.3464 13.5435 12.4095 13.6956L12.5942 13.619ZM12.8227 13.9607C12.7248 13.863 12.6472 13.7468 12.5942 13.619L12.4095 13.6956C12.4725 13.8477 12.5648 13.9859 12.6813 14.1022L12.8227 13.9607ZM13.1658 14.6024C13.1174 14.3593 12.998 14.136 12.8227 13.9607L12.6813 14.1022C12.8286 14.2495 12.929 14.4371 12.9697 14.6415L13.1658 14.6024ZM13.0946 15.3267C13.1894 15.0977 13.2142 14.8456 13.1658 14.6024L12.9697 14.6415C13.0104 14.8458 12.9895 15.0577 12.9098 15.2502L13.0946 15.3267ZM12.6329 15.8892C12.839 15.7515 12.9997 15.5558 13.0946 15.3267L12.9098 15.2502C12.8301 15.4427 12.695 15.6072 12.5218 15.7228L12.6329 15.8892ZM11.9366 16.1C12.1844 16.1002 12.4268 16.0268 12.6329 15.8892L12.5218 15.7228C12.3486 15.8385 12.145 15.9002 11.9367 15.9L11.9366 16.1ZM11.8688 15.9264L11.8659 15.9293L12.0074 16.0707L12.0103 16.0678L11.8688 15.9264ZM13.5311 3.53362C14.3571 4.37659 14.8204 5.51042 14.8204 6.69205H15.0204C15.0204 5.45807 14.5366 4.27399 13.674 3.39365L13.5311 3.53362ZM14.8204 6.69205C14.8204 7.88872 14.3452 9.03637 13.4994 9.88252L13.6409 10.0239C14.5242 9.14024 15.0204 7.94173 15.0204 6.69205H14.8204ZM13.4994 9.88252L11.8688 11.5138L12.0103 11.6552L13.6409 10.0239L13.4994 9.88252ZM11.8688 11.5139C11.4182 11.965 11.165 12.5766 11.165 13.2144H11.365C11.365 12.6296 11.5971 12.0688 12.0103 11.6552L11.8688 11.5139ZM11.165 13.2144C11.165 13.8521 11.4182 14.4638 11.8688 14.9149L12.0103 14.7736C11.5971 14.36 11.365 13.7991 11.365 13.2144H11.165ZM12.0103 14.7736L2.23238 4.99149L2.09093 5.13288L11.8688 14.9149L12.0103 14.7736ZM2.09095 5.13291C2.54188 5.58373 3.15331 5.83699 3.79083 5.83699V5.63699C3.20636 5.63699 2.64579 5.40481 2.23236 4.99147L2.09095 5.13291ZM3.79083 5.83699C4.42835 5.83699 5.03977 5.58373 5.4907 5.13291L5.34929 4.99147C4.93586 5.40481 4.3753 5.63699 3.79083 5.63699V5.83699ZM5.49072 5.13288L7.12133 3.50158L6.97988 3.36019L5.34927 4.99149L5.49072 5.13288ZM7.12133 3.50158C7.96713 2.65542 9.11426 2.18006 10.3104 2.18006V1.98006C9.06119 1.98006 7.86318 2.47652 6.97988 3.36019L7.12133 3.50158ZM10.3104 2.18006C11.4896 2.18006 12.6211 2.64206 13.4633 3.46587L13.6032 3.32289C12.7237 2.46256 11.5419 1.98006 10.3104 1.98006V2.18006ZM13.6702 3.38995C13.6482 3.36976 13.6271 3.34865 13.6069 3.32671L13.4596 3.46205C13.4836 3.48817 13.5088 3.51328 13.535 3.53731L13.6702 3.38995ZM4.89835 14.4011C5.29416 14.6654 5.75947 14.8063 6.23537 14.8059L6.23521 14.6059C5.79891 14.6063 5.37231 14.4771 5.00943 14.2347L4.89835 14.4011ZM4.01188 13.3211C4.19404 13.7609 4.50255 14.1367 4.89835 14.4011L5.00943 14.2347C4.64654 13.9924 4.36368 13.6478 4.19666 13.2445L4.01188 13.3211ZM3.87504 11.9303C3.78209 12.3972 3.82972 12.8812 4.01188 13.3211L4.19666 13.2445C4.02964 12.8413 3.98597 12.3975 4.07119 11.9694L3.87504 11.9303ZM4.53399 10.6981C4.1973 11.0346 3.96798 11.4634 3.87504 11.9303L4.07119 11.9694C4.1564 11.5413 4.36667 11.1481 4.67537 10.8396L4.53399 10.6981ZM5.01233 10.5C4.8329 10.5 4.66082 10.5713 4.53395 10.6982L4.67541 10.8396C4.76477 10.7502 4.88597 10.7 5.01233 10.7V10.5ZM5.49071 10.6982C5.36384 10.5713 5.19177 10.5 5.01233 10.5V10.7C5.1387 10.7 5.25989 10.7502 5.34926 10.8396L5.49071 10.6982ZM5.68884 11.1767C5.68884 10.9972 5.61758 10.8251 5.49071 10.6982L5.34926 10.8396C5.43863 10.929 5.48884 11.0503 5.48884 11.1767H5.68884ZM5.49071 11.6552C5.61758 11.5283 5.68884 11.3562 5.68884 11.1767H5.48884C5.48884 11.3032 5.43863 11.4244 5.34926 11.5138L5.49071 11.6552ZM5.26223 11.997C5.3152 11.8692 5.39282 11.753 5.49067 11.6553L5.3493 11.5138C5.23286 11.6302 5.14049 11.7683 5.07747 11.9204L5.26223 11.997ZM5.18201 12.4002C5.18201 12.2618 5.20927 12.1248 5.26223 11.997L5.07747 11.9204C5.01445 12.0725 4.98201 12.2355 4.98201 12.4002H5.18201ZM5.26223 12.8034C5.20927 12.6756 5.18201 12.5386 5.18201 12.4002H4.98201C4.98201 12.5648 5.01445 12.7279 5.07747 12.8799L5.26223 12.8034ZM5.49067 13.1451C5.39282 13.0473 5.3152 12.9312 5.26223 12.8034L5.07747 12.8799C5.14049 13.032 5.23286 13.1702 5.3493 13.2866L5.49067 13.1451ZM6.23529 13.4425C5.95738 13.4425 5.69013 13.3354 5.48902 13.1435L5.35094 13.2882C5.58924 13.5156 5.90594 13.6425 6.23529 13.6425V13.4425ZM6.98155 13.1435C6.78045 13.3354 6.5132 13.4425 6.23529 13.4425V13.6425C6.56464 13.6425 6.88133 13.5156 7.11963 13.2882L6.98155 13.1435ZM7.45825 12.9469C7.27881 12.9469 7.10673 13.0182 6.97987 13.1451L7.12132 13.2865C7.21069 13.1971 7.33188 13.1469 7.45825 13.1469V12.9469ZM7.93662 13.1451C7.80976 13.0182 7.63768 12.9469 7.45825 12.9469V13.1469C7.58461 13.1469 7.70581 13.1971 7.79517 13.2865L7.93662 13.1451ZM8.13475 13.6237C8.13475 13.4442 8.06349 13.2721 7.93662 13.1451L7.79517 13.2865C7.88454 13.3759 7.93475 13.4972 7.93475 13.6237H8.13475ZM7.93662 14.1022C8.06349 13.9753 8.13475 13.8031 8.13475 13.6237H7.93475C7.93475 13.7501 7.88454 13.8714 7.79517 13.9608L7.93662 14.1022ZM7.15588 14.6234C7.44781 14.5027 7.71309 14.3256 7.93658 14.1022L7.79521 13.9608C7.59031 14.1655 7.34708 14.3279 7.07944 14.4386L7.15588 14.6234ZM6.23521 14.8059C6.55111 14.8062 6.86395 14.7441 7.15588 14.6234L7.07944 14.4386C6.8118 14.5493 6.52498 14.6061 6.23537 14.6059L6.23521 14.8059Z" fill="#0F8CFF"/>
</svg>
