<svg width="14" height="15" viewBox="0 0 14 15" fill="none" xmlns="http://www.w3.org/2000/svg">
<path d="M12.8169 0.764562H10.275V0.509709C10.275 0.236651 10.0602 0 9.77379 0C9.50528 0 9.27257 0.218447 9.27257 0.509709V0.764562H4.34987V0.509709C4.34987 0.236651 4.13507 0 3.84865 0C3.58014 0 3.34743 0.218447 3.34743 0.509709V0.764562H0.716029C0.304312 0.764562 0 1.05582 0 1.49272V4.36893V14.29C0 14.6905 0.286411 15 0.716029 15H12.7811C13.1928 15 13.4971 14.6905 13.4971 14.29V4.36893V1.49272C13.5329 1.09223 13.2286 0.764562 12.8169 0.764562ZM1.02034 1.76578H3.38323V2.02063C3.38323 2.29369 3.59804 2.53034 3.88445 2.53034C4.15296 2.53034 4.38568 2.31189 4.38568 2.02063V1.76578H9.30837V2.02063C9.30837 2.29369 9.52318 2.53034 9.80959 2.53034C10.0781 2.53034 10.3108 2.31189 10.3108 2.02063V1.76578H12.5663V3.85922H1.05614V1.76578H1.02034ZM12.5484 13.9806H1.03824V4.86044H12.5484V13.9806ZM2.98942 7.22694H4.47518V8.73786H2.98942V7.22694ZM6.05044 7.22694H7.5362V8.73786H6.05044V7.22694ZM9.11146 7.22694H10.5972V8.73786H9.11146V7.22694ZM2.98942 10.176H4.47518V11.6869H2.98942V10.176ZM6.05044 10.176H7.5362V11.6869H6.05044V10.176Z" fill="#748CAD"/>
</svg>
