<svg width="9" height="15" viewBox="0 0 9 15" fill="none" xmlns="http://www.w3.org/2000/svg">
<path d="M0.253822 14.7419C0.420504 14.9058 0.644484 14.9984 0.878274 15C1.11206 14.9984 1.33604 14.9058 1.50273 14.7419L8.13857 8.10814C8.3033 7.94206 8.39573 7.71761 8.39573 7.48368C8.39573 7.24976 8.3033 7.02531 8.13857 6.85923L1.50481 0.223392C1.33617 0.0735206 1.11664 -0.00625512 0.891121 0.000383421C0.665606 0.00702197 0.451149 0.0995731 0.291617 0.259105C0.132084 0.418638 0.0395331 0.633095 0.0328946 0.85861C0.026256 1.08413 0.106032 1.30366 0.255904 1.4723L6.26313 7.48368L0.253822 13.493C0.0910728 13.6601 0 13.8842 0 14.1174C0 14.3507 0.0910728 14.5748 0.253822 14.7419Z" fill="#2443A7"/>
</svg>
