<svg width="8" height="13" viewBox="0 0 8 13" fill="none" xmlns="http://www.w3.org/2000/svg">
<path d="M6.99714 12.1935C6.86379 12.3247 6.68461 12.3987 6.49758 12.4C6.31054 12.3987 6.13136 12.3247 5.99801 12.1935L0.689342 6.8865C0.557554 6.75364 0.483606 6.57408 0.483606 6.38694C0.483606 6.1998 0.557554 6.02024 0.689342 5.88738L5.99635 0.578708C6.13126 0.45881 6.30689 0.39499 6.4873 0.400301C6.66771 0.405611 6.83928 0.479652 6.9669 0.607278C7.09453 0.734904 7.16857 0.90647 7.17388 1.08688C7.17919 1.26729 7.11537 1.44292 6.99547 1.57783L2.18969 6.38694L6.99714 11.1944C7.12734 11.3281 7.2002 11.5073 7.2002 11.6939C7.2002 11.8806 7.12734 12.0598 6.99714 12.1935Z" fill="#18379A"/>
</svg>
