<svg width="16" height="15" viewBox="0 0 16 15" fill="none" xmlns="http://www.w3.org/2000/svg">
<path fill-rule="evenodd" clip-rule="evenodd" d="M7.88892 8.25002C7.88892 8.39213 7.93103 8.53068 8.00937 8.64632L8.99108 9.40696L9.9728 10.1676C10.1804 10.474 10.5843 10.545 10.8749 10.3261C11.1655 10.1073 11.2328 9.68143 11.0252 9.37501L9.18224 8.07957V4.15911C9.18224 3.78256 8.89272 3.47729 8.53558 3.47729C8.17844 3.47729 7.88892 3.78256 7.88892 4.15911V8.25002Z" fill="#0F8CFF"/>
<path fill-rule="evenodd" clip-rule="evenodd" d="M8.88674 13.6364C12.101 13.6364 14.7067 10.889 14.7067 7.5C14.7067 4.11098 12.101 1.36364 8.88674 1.36364C7.36169 1.36364 5.93086 1.98386 4.85352 3.07605C4.59608 3.33704 4.18671 3.32857 3.93918 3.05713C3.69165 2.78569 3.69968 2.35407 3.95712 2.09308C5.27304 0.759028 7.02408 0 8.88674 0C12.8153 0 16 3.35786 16 7.5C16 11.6421 12.8153 15 8.88674 15C4.95819 15 1.77347 11.6421 1.77347 7.5C1.77347 7.12344 2.06299 6.81818 2.42013 6.81818C2.77728 6.81818 3.06679 7.12344 3.06679 7.5C3.06679 10.889 5.67247 13.6364 8.88674 13.6364Z" fill="#0F8CFF"/>
<path fill-rule="evenodd" clip-rule="evenodd" d="M1.96298 5.48879C2.21552 5.22253 2.62496 5.22253 2.8775 5.48879L4.65105 7.35878C4.90359 7.62504 4.90359 8.05675 4.65105 8.32301C4.39852 8.58928 3.98907 8.58928 3.73654 8.32301L2.41475 6.94093L1.10394 8.32301C0.851402 8.58928 0.44196 8.58928 0.189423 8.32301C-0.0631132 8.05675 -0.0631132 7.62504 0.189423 7.35878L1.96298 5.48879Z" fill="#0F8CFF"/>
</svg>
