<svg width="38" height="54" viewBox="0 0 38 54" fill="none" xmlns="http://www.w3.org/2000/svg">
<path d="M8.18719 46.014H9.51719C9.44252 45.482 9.28386 45.0153 9.04119 44.614C8.79852 44.2033 8.49519 43.8627 8.13119 43.592C7.76719 43.3213 7.35186 43.116 6.88519 42.976C6.41852 42.836 5.92386 42.766 5.40119 42.766C4.63586 42.766 3.95452 42.906 3.35719 43.186C2.76919 43.4567 2.27452 43.83 1.87319 44.306C1.48119 44.782 1.18252 45.342 0.977188 45.986C0.771855 46.6207 0.669188 47.302 0.669188 48.03C0.669188 48.758 0.762522 49.4393 0.949188 50.074C1.14519 50.7087 1.43452 51.2593 1.81719 51.726C2.19986 52.1927 2.68052 52.5613 3.25919 52.832C3.83786 53.0933 4.51452 53.224 5.28919 53.224C6.56786 53.224 7.57586 52.874 8.31319 52.174C9.05052 51.474 9.48452 50.494 9.61519 49.234H8.28519C8.25719 49.6447 8.17319 50.0273 8.03319 50.382C7.89319 50.7367 7.69719 51.0447 7.44519 51.306C7.20252 51.558 6.90852 51.7587 6.56319 51.908C6.22719 52.048 5.83986 52.118 5.40119 52.118C4.80386 52.118 4.29052 52.006 3.86119 51.782C3.43186 51.558 3.07719 51.2593 2.79719 50.886C2.52652 50.5033 2.32586 50.06 2.19519 49.556C2.06452 49.0427 1.99919 48.5013 1.99919 47.932C1.99919 47.4093 2.06452 46.9053 2.19519 46.42C2.32586 45.9347 2.52652 45.5053 2.79719 45.132C3.07719 44.7493 3.42719 44.446 3.84719 44.222C4.27652 43.998 4.78986 43.886 5.38719 43.886C6.08719 43.886 6.68919 44.0633 7.19319 44.418C7.70652 44.7727 8.03786 45.3047 8.18719 46.014ZM11.5567 43.004V53H12.7467V43.004H11.5567ZM15.8782 49.388C15.8782 48.9493 15.9342 48.562 16.0462 48.226C16.1676 47.8807 16.3309 47.5913 16.5362 47.358C16.7416 47.1247 16.9796 46.9473 17.2502 46.826C17.5302 46.7047 17.8242 46.644 18.1322 46.644C18.4402 46.644 18.7296 46.7047 19.0002 46.826C19.2802 46.9473 19.5229 47.1247 19.7282 47.358C19.9336 47.5913 20.0922 47.8807 20.2042 48.226C20.3256 48.562 20.3862 48.9493 20.3862 49.388C20.3862 49.8267 20.3256 50.2187 20.2042 50.564C20.0922 50.9 19.9336 51.1847 19.7282 51.418C19.5229 51.642 19.2802 51.8147 19.0002 51.936C18.7296 52.0573 18.4402 52.118 18.1322 52.118C17.8242 52.118 17.5302 52.0573 17.2502 51.936C16.9796 51.8147 16.7416 51.642 16.5362 51.418C16.3309 51.1847 16.1676 50.9 16.0462 50.564C15.9342 50.2187 15.8782 49.8267 15.8782 49.388ZM14.6182 49.388C14.6182 49.92 14.6929 50.4147 14.8422 50.872C14.9916 51.3293 15.2156 51.7307 15.5142 52.076C15.8129 52.412 16.1816 52.678 16.6202 52.874C17.0589 53.0607 17.5629 53.154 18.1322 53.154C18.7109 53.154 19.2149 53.0607 19.6442 52.874C20.0829 52.678 20.4516 52.412 20.7502 52.076C21.0489 51.7307 21.2729 51.3293 21.4222 50.872C21.5716 50.4147 21.6462 49.92 21.6462 49.388C21.6462 48.856 21.5716 48.3613 21.4222 47.904C21.2729 47.4373 21.0489 47.036 20.7502 46.7C20.4516 46.3547 20.0829 46.084 19.6442 45.888C19.2149 45.692 18.7109 45.594 18.1322 45.594C17.5629 45.594 17.0589 45.692 16.6202 45.888C16.1816 46.084 15.8129 46.3547 15.5142 46.7C15.2156 47.036 14.9916 47.4373 14.8422 47.904C14.6929 48.3613 14.6182 48.856 14.6182 49.388ZM24.1973 50.718H23.0073C23.0259 51.166 23.1193 51.5487 23.2873 51.866C23.4553 52.174 23.6793 52.426 23.9593 52.622C24.2393 52.8087 24.5613 52.944 24.9253 53.028C25.2893 53.112 25.6719 53.154 26.0733 53.154C26.4373 53.154 26.8013 53.1167 27.1653 53.042C27.5386 52.9767 27.8699 52.8553 28.1593 52.678C28.4579 52.5007 28.6959 52.2673 28.8733 51.978C29.0599 51.6887 29.1533 51.3247 29.1533 50.886C29.1533 50.5407 29.0833 50.2513 28.9433 50.018C28.8126 49.7847 28.6353 49.5933 28.4113 49.444C28.1966 49.2853 27.9446 49.1593 27.6553 49.066C27.3753 48.9727 27.0859 48.8933 26.7873 48.828C26.5073 48.7627 26.2273 48.702 25.9473 48.646C25.6673 48.5807 25.4153 48.506 25.1913 48.422C24.9673 48.3287 24.7806 48.2167 24.6313 48.086C24.4913 47.946 24.4213 47.7733 24.4213 47.568C24.4213 47.3813 24.4679 47.232 24.5613 47.12C24.6546 46.9987 24.7759 46.9053 24.9253 46.84C25.0746 46.7653 25.2379 46.714 25.4153 46.686C25.6019 46.658 25.7839 46.644 25.9613 46.644C26.1573 46.644 26.3486 46.6673 26.5353 46.714C26.7313 46.7513 26.9086 46.8167 27.0673 46.91C27.2259 47.0033 27.3566 47.1293 27.4593 47.288C27.5619 47.4373 27.6226 47.6287 27.6413 47.862H28.8313C28.8033 47.4233 28.7099 47.0593 28.5513 46.77C28.3926 46.4713 28.1779 46.238 27.9073 46.07C27.6459 45.8927 27.3426 45.7713 26.9973 45.706C26.6519 45.6313 26.2739 45.594 25.8633 45.594C25.5459 45.594 25.2239 45.636 24.8973 45.72C24.5799 45.7947 24.2906 45.916 24.0293 46.084C23.7773 46.2427 23.5673 46.4527 23.3993 46.714C23.2406 46.9753 23.1613 47.288 23.1613 47.652C23.1613 48.1187 23.2779 48.4827 23.5113 48.744C23.7446 49.0053 24.0339 49.2107 24.3793 49.36C24.7339 49.5 25.1166 49.612 25.5273 49.696C25.9379 49.7707 26.3159 49.8593 26.6613 49.962C27.0159 50.0553 27.3099 50.1813 27.5433 50.34C27.7766 50.4987 27.8933 50.732 27.8933 51.04C27.8933 51.264 27.8373 51.4507 27.7253 51.6C27.6133 51.74 27.4686 51.8473 27.2913 51.922C27.1233 51.9967 26.9366 52.048 26.7313 52.076C26.5259 52.104 26.3299 52.118 26.1433 52.118C25.9006 52.118 25.6626 52.0947 25.4293 52.048C25.2053 52.0013 24.9999 51.9267 24.8133 51.824C24.6359 51.712 24.4913 51.5673 24.3793 51.39C24.2673 51.2033 24.2066 50.9793 24.1973 50.718ZM35.9153 48.688H31.7573C31.7759 48.408 31.8366 48.1467 31.9393 47.904C32.0419 47.652 32.1819 47.4327 32.3593 47.246C32.5366 47.0593 32.7466 46.9147 32.9893 46.812C33.2413 46.7 33.5213 46.644 33.8293 46.644C34.1279 46.644 34.3986 46.7 34.6413 46.812C34.8933 46.9147 35.1079 47.0593 35.2853 47.246C35.4719 47.4233 35.6166 47.638 35.7193 47.89C35.8313 48.142 35.8966 48.408 35.9153 48.688ZM37.0633 50.704H35.8873C35.7846 51.18 35.5699 51.5347 35.2433 51.768C34.9259 52.0013 34.5153 52.118 34.0113 52.118C33.6193 52.118 33.2786 52.0527 32.9893 51.922C32.6999 51.7913 32.4619 51.6187 32.2753 51.404C32.0886 51.18 31.9533 50.928 31.8693 50.648C31.7853 50.3587 31.7479 50.0553 31.7573 49.738H37.1753C37.1939 49.2993 37.1519 48.8373 37.0493 48.352C36.9559 47.8667 36.7786 47.4187 36.5173 47.008C36.2653 46.5973 35.9246 46.2613 35.4953 46C35.0753 45.7293 34.5433 45.594 33.8993 45.594C33.4046 45.594 32.9473 45.6873 32.5273 45.874C32.1166 46.0607 31.7573 46.322 31.4493 46.658C31.1506 46.994 30.9173 47.3907 30.7493 47.848C30.5813 48.3053 30.4973 48.8093 30.4973 49.36C30.5159 49.9107 30.5953 50.4193 30.7353 50.886C30.8846 51.3527 31.1039 51.754 31.3933 52.09C31.6826 52.426 32.0373 52.6873 32.4573 52.874C32.8866 53.0607 33.3906 53.154 33.9693 53.154C34.7906 53.154 35.4719 52.9487 36.0133 52.538C36.5546 52.1273 36.9046 51.516 37.0633 50.704Z" fill="white"/>
<path d="M29 1.81852L27.1815 0L19 8.18148L10.8185 0L9 1.81852L17.1815 10L9 18.1815L10.8185 20L19 11.8185L27.1815 20L29 18.1815L20.8185 10L29 1.81852Z" fill="white"/>
</svg>
