<svg width="15" height="15" viewBox="0 0 15 15" fill="none" xmlns="http://www.w3.org/2000/svg">
<path d="M14.7256 13.3999L8.82591 7.50021L14.7256 1.60056C15.0917 1.23441 15.0917 0.641164 14.7256 0.274864C14.3597 -0.0912857 13.7662 -0.0912857 13.3999 0.274864L7.50021 6.17451L1.60056 0.274864C1.23471 -0.0912857 0.641157 -0.0912857 0.274857 0.274864C-0.0912933 0.640414 -0.0912933 1.23426 0.274857 1.60056L6.17451 7.50021L0.274857 13.3999C-0.0912933 13.766 -0.0912933 14.3593 0.274857 14.7256C0.641007 15.0917 1.23426 15.0917 1.60056 14.7256L7.50021 8.82591L13.3999 14.7256C13.766 15.0917 14.3597 15.0917 14.7256 14.7256C15.0917 14.3594 15.0917 13.7662 14.7256 13.3999Z" fill="#18379A"/>
</svg>
