<svg width="22" height="21" viewBox="0 0 22 21" fill="none" xmlns="http://www.w3.org/2000/svg">
<path fill-rule="evenodd" clip-rule="evenodd" d="M11 20.009C10.8629 20.009 10.7319 19.9525 10.6368 19.853L2.70406 11.495C0.43198 9.10135 0.43198 5.206 2.70406 2.81186C3.81309 1.64331 5.28929 1 6.86104 1C8.42478 1 9.89348 1.6363 11 2.79285C12.1065 1.6363 13.5752 1 15.139 1C16.7107 1 18.1869 1.64331 19.2959 2.81186C21.568 5.2055 21.568 9.10085 19.2959 11.495L11.3632 19.853C11.2681 19.9525 11.1371 20.009 11 20.009ZM6.86104 2.00048C5.56642 2.00048 4.34784 2.53323 3.4299 3.50069C1.518 5.51465 1.518 8.7922 3.4299 10.8062L11 18.782L18.5696 10.8062C20.4815 8.7922 20.4815 5.51465 18.5696 3.50069C17.6517 2.53323 16.4336 2.00048 15.139 2.00048C13.8444 2.00048 12.6258 2.53323 11.7073 3.50069L11.3627 3.86436C11.1731 4.06296 10.8264 4.06296 10.6368 3.86436L10.2922 3.50069C9.37423 2.53323 8.15615 2.00048 6.86104 2.00048ZM8.12868 11.6695L13.1312 6.16724L13.8719 6.8406L8.8693 12.3429L8.12868 11.6695ZM10.4998 7.75321C10.4998 8.5806 9.82645 9.25392 8.99906 9.25392C8.17166 9.25392 7.49834 8.5806 7.49834 7.75321C7.49834 6.92582 8.17166 6.2525 8.99906 6.2525C9.82645 6.2525 10.4998 6.92582 10.4998 7.75321ZM9.49929 7.75321C9.49929 7.47758 9.27519 7.25297 8.99906 7.25297C8.72293 7.25297 8.49882 7.47758 8.49882 7.75321C8.49882 8.02884 8.72293 8.25345 8.99906 8.25345C9.27519 8.25345 9.49929 8.02884 9.49929 7.75321ZM11.5002 10.7546C11.5002 11.582 12.1736 12.2554 13.001 12.2554C13.8284 12.2554 14.5017 11.582 14.5017 10.7546C14.5017 9.92724 13.8284 9.25392 13.001 9.25392C12.1736 9.25392 11.5002 9.92724 11.5002 10.7546ZM13.5012 10.7546C13.5012 11.0303 13.2771 11.2549 13.001 11.2549C12.7248 11.2549 12.5007 11.0303 12.5007 10.7546C12.5007 10.479 12.7248 10.2544 13.001 10.2544C13.2771 10.2544 13.5012 10.479 13.5012 10.7546Z" fill="#8FA9FF"/>
<path d="M10.6368 19.853L10.528 19.9562L10.5283 19.9565L10.6368 19.853ZM2.70406 11.495L2.81286 11.3917L2.81285 11.3917L2.70406 11.495ZM2.70406 2.81186L2.59526 2.7086L2.59526 2.70861L2.70406 2.81186ZM11 2.79285L10.8916 2.89655C10.9199 2.92612 10.9591 2.94285 11 2.94285C11.0409 2.94285 11.0801 2.92612 11.1084 2.89655L11 2.79285ZM19.2959 2.81186L19.1871 2.91512L19.1872 2.91513L19.2959 2.81186ZM19.2959 11.495L19.4047 11.5983L19.4047 11.5982L19.2959 11.495ZM11.3632 19.853L11.4717 19.9565L11.472 19.9562L11.3632 19.853ZM3.4299 3.50069L3.53869 3.60396L3.53872 3.60393L3.4299 3.50069ZM3.4299 10.8062L3.5387 10.7029L3.53869 10.7029L3.4299 10.8062ZM11 18.782L10.8912 18.8852C10.9195 18.9151 10.9589 18.932 11 18.932C11.0411 18.932 11.0805 18.9151 11.1088 18.8852L11 18.782ZM18.5696 10.8062L18.4608 10.7029L18.4608 10.7029L18.5696 10.8062ZM18.5696 3.50069L18.4608 3.60393L18.4608 3.60396L18.5696 3.50069ZM11.7073 3.50069L11.5986 3.39741L11.5985 3.39751L11.7073 3.50069ZM11.3627 3.86436L11.4712 3.96794L11.4715 3.96754L11.3627 3.86436ZM10.6368 3.86436L10.528 3.96754L10.5283 3.96794L10.6368 3.86436ZM10.2922 3.50069L10.401 3.39751L10.401 3.39744L10.2922 3.50069ZM13.1312 6.16724L13.2321 6.05625C13.1708 6.00052 13.076 6.00504 13.0202 6.06633L13.1312 6.16724ZM8.12868 11.6695L8.01769 11.5686C7.99093 11.5981 7.97696 11.6369 7.97885 11.6767C7.98074 11.7164 7.99834 11.7538 8.02777 11.7805L8.12868 11.6695ZM13.8719 6.8406L13.9828 6.9415C14.0096 6.91207 14.0236 6.87321 14.0217 6.83347C14.0198 6.79373 14.0022 6.75637 13.9728 6.72961L13.8719 6.8406ZM8.8693 12.3429L8.76839 12.4539C8.82969 12.5096 8.92456 12.5051 8.98029 12.4438L8.8693 12.3429ZM10.5283 19.9565C10.6514 20.0854 10.8215 20.159 11 20.159V19.859C10.9044 19.859 10.8124 19.8196 10.7453 19.7494L10.5283 19.9565ZM2.59526 11.5983L10.528 19.9562L10.7456 19.7497L2.81286 11.3917L2.59526 11.5983ZM2.59526 2.70861C0.268254 5.16062 0.268239 9.14673 2.59527 11.5983L2.81285 11.3917C0.595722 9.05597 0.595707 5.25138 2.81286 2.91512L2.59526 2.70861ZM6.86104 0.85C5.24701 0.85 3.73182 1.51104 2.59526 2.7086L2.81286 2.91512C3.89436 1.77557 5.33157 1.15 6.86104 1.15V0.85ZM11.1084 2.68916C9.97433 1.50383 8.4668 0.85 6.86104 0.85V1.15C8.38276 1.15 9.81263 1.76878 10.8916 2.89655L11.1084 2.68916ZM15.139 0.85C13.5332 0.85 12.0257 1.50383 10.8916 2.68916L11.1084 2.89655C12.1874 1.76878 13.6172 1.15 15.139 1.15V0.85ZM19.4047 2.7086C18.2682 1.51104 16.753 0.85 15.139 0.85V1.15C16.6684 1.15 18.1056 1.77557 19.1871 2.91512L19.4047 2.7086ZM19.4047 11.5982C21.7318 9.14623 21.7318 5.16012 19.4047 2.70859L19.1872 2.91513C21.4043 5.25088 21.4043 9.05547 19.1871 11.3917L19.4047 11.5982ZM11.472 19.9562L19.4047 11.5983L19.1871 11.3917L11.2544 19.7497L11.472 19.9562ZM11 20.159C11.1785 20.159 11.3486 20.0854 11.4717 19.9565L11.2547 19.7494C11.1876 19.8196 11.0957 19.859 11 19.859V20.159ZM3.53872 3.60393C4.42929 2.66531 5.60894 2.15048 6.86104 2.15048V1.85048C5.5239 1.85048 4.26639 2.40114 3.32109 3.39744L3.53872 3.60393ZM3.53869 10.7029C1.68173 8.74681 1.68173 5.56004 3.53869 3.60396L3.32112 3.39741C1.35426 5.46926 1.35426 8.83759 3.32112 10.9094L3.53869 10.7029ZM11.1088 18.6787L3.5387 10.7029L3.32111 10.9094L10.8912 18.8852L11.1088 18.6787ZM18.4608 10.7029L10.8912 18.6787L11.1088 18.8852L18.6784 10.9094L18.4608 10.7029ZM18.4608 3.60396C20.3178 5.56004 20.3178 8.74681 18.4608 10.7029L18.6784 10.9094C20.6452 8.83759 20.6452 5.46926 18.6784 3.39741L18.4608 3.60396ZM15.139 2.15048C16.391 2.15048 17.5702 2.6653 18.4608 3.60393L18.6784 3.39744C17.7331 2.40116 16.4761 1.85048 15.139 1.85048V2.15048ZM11.8161 3.60396C12.7072 2.66531 13.8869 2.15048 15.139 2.15048V1.85048C13.8018 1.85048 12.5443 2.40115 11.5986 3.39741L11.8161 3.60396ZM11.4715 3.96754L11.8162 3.60387L11.5985 3.39751L11.2538 3.76118L11.4715 3.96754ZM10.5283 3.96794C10.777 4.22843 11.2225 4.22843 11.4712 3.96794L11.2542 3.76078C11.1237 3.89748 10.8758 3.89748 10.7453 3.76078L10.5283 3.96794ZM10.1833 3.60387L10.528 3.96754L10.7457 3.76118L10.401 3.39751L10.1833 3.60387ZM6.86104 2.15048C8.11362 2.15048 9.29277 2.66531 10.1834 3.60393L10.401 3.39744C9.45569 2.40115 8.19868 1.85048 6.86104 1.85048V2.15048ZM13.0202 6.06633L8.01769 11.5686L8.23966 11.7704L13.2422 6.26815L13.0202 6.06633ZM13.9728 6.72961L13.2321 6.05625L13.0303 6.27823L13.771 6.95158L13.9728 6.72961ZM8.98029 12.4438L13.9828 6.9415L13.7609 6.73969L8.75831 12.242L8.98029 12.4438ZM8.02777 11.7805L8.76839 12.4539L8.97021 12.2319L8.22958 11.5585L8.02777 11.7805ZM8.99906 9.40392C9.90929 9.40392 10.6498 8.66345 10.6498 7.75321H10.3498C10.3498 8.49776 9.74361 9.10392 8.99906 9.10392V9.40392ZM7.34834 7.75321C7.34834 8.66345 8.08882 9.40392 8.99906 9.40392V9.10392C8.25451 9.10392 7.64834 8.49776 7.64834 7.75321H7.34834ZM8.99906 6.1025C8.08882 6.1025 7.34834 6.84297 7.34834 7.75321H7.64834C7.64834 7.00866 8.25451 6.4025 8.99906 6.4025V6.1025ZM10.6498 7.75321C10.6498 6.84297 9.90929 6.1025 8.99906 6.1025V6.4025C9.74361 6.4025 10.3498 7.00866 10.3498 7.75321H10.6498ZM8.99906 7.40297C9.19225 7.40297 9.34929 7.56032 9.34929 7.75321H9.64929C9.64929 7.39483 9.35813 7.10297 8.99906 7.10297V7.40297ZM8.64882 7.75321C8.64882 7.56032 8.80587 7.40297 8.99906 7.40297V7.10297C8.63999 7.10297 8.34882 7.39483 8.34882 7.75321H8.64882ZM8.99906 8.10345C8.80587 8.10345 8.64882 7.9461 8.64882 7.75321H8.34882C8.34882 8.11159 8.63999 8.40345 8.99906 8.40345V8.10345ZM9.34929 7.75321C9.34929 7.9461 9.19225 8.10345 8.99906 8.10345V8.40345C9.35813 8.40345 9.64929 8.11159 9.64929 7.75321H9.34929ZM13.001 12.1054C12.2564 12.1054 11.6502 11.4992 11.6502 10.7546H11.3502C11.3502 11.6649 12.0907 12.4053 13.001 12.4053V12.1054ZM14.3517 10.7546C14.3517 11.4992 13.7455 12.1054 13.001 12.1054V12.4053C13.9112 12.4053 14.6517 11.6649 14.6517 10.7546H14.3517ZM13.001 9.40392C13.7455 9.40392 14.3517 10.0101 14.3517 10.7546H14.6517C14.6517 9.8444 13.9112 9.10392 13.001 9.10392V9.40392ZM11.6502 10.7546C11.6502 10.0101 12.2564 9.40392 13.001 9.40392V9.10392C12.0907 9.10392 11.3502 9.8444 11.3502 10.7546H11.6502ZM13.001 11.4049C13.36 11.4049 13.6512 11.113 13.6512 10.7546H13.3512C13.3512 10.9475 13.1942 11.1049 13.001 11.1049V11.4049ZM12.3507 10.7546C12.3507 11.113 12.6419 11.4049 13.001 11.4049V11.1049C12.8078 11.1049 12.6507 10.9475 12.6507 10.7546H12.3507ZM13.001 10.1044C12.6419 10.1044 12.3507 10.3963 12.3507 10.7546H12.6507C12.6507 10.5618 12.8078 10.4044 13.001 10.4044V10.1044ZM13.6512 10.7546C13.6512 10.3963 13.36 10.1044 13.001 10.1044V10.4044C13.1942 10.4044 13.3512 10.5618 13.3512 10.7546H13.6512Z" fill="#8FA9FF"/>
</svg>
