<svg width="100" height="140" viewBox="0 0 100 140" fill="none" xmlns="http://www.w3.org/2000/svg">
<path d="M7.81258 42.4644H85.9376C90.2345 42.4644 93.7501 45.98 93.7501 50.2769V59.652C93.7501 63.949 90.2345 67.4646 85.9376 67.4646H7.81258C3.51561 67.4642 0 63.9486 0 59.6518V50.2767C0 45.98 3.51561 42.4644 7.81258 42.4644Z" fill="#A86A3F"/>
<path d="M89.0626 120.589H7.81258C3.51561 120.589 0 117.074 0 112.777V56.5267H89.0626C93.3596 56.5267 96.8752 60.0423 96.8752 64.3392V112.777C96.875 117.074 93.3594 120.589 89.0626 120.589ZM6.25006 56.5267H0V50.2766C0 53.7141 2.81241 56.5267 6.25006 56.5267Z" fill="#C47E4D"/>
<path d="M96.8748 101.058H84.3749C78.3593 101.058 73.4375 96.1361 73.4375 90.1205C73.4375 84.1049 78.3593 79.1831 84.3749 79.1831H96.8748C98.5937 79.1831 99.9999 80.5893 99.9999 82.3081V97.9331C99.9999 99.6517 98.5937 101.058 96.8748 101.058Z" fill="#A86A3F"/>
<path d="M84.3751 83.8704C87.8125 83.8704 90.6251 86.6828 90.6251 90.1204C90.6251 93.5581 87.8127 96.3705 84.3751 96.3705C80.9376 96.3705 78.125 93.5581 78.125 90.1204C78.125 86.6828 80.9376 83.8704 84.3751 83.8704Z" fill="#EFC75E"/>
<path d="M85.9376 94.8079C82.5001 94.8079 79.6875 91.9955 79.6875 88.5579C79.6875 87.2298 80.0781 85.9797 80.7813 84.9641C79.1406 86.0579 78.125 87.9328 78.125 90.1204C78.125 93.5578 80.9374 96.3705 84.3751 96.3705C86.4845 96.3705 88.3594 95.2767 89.5313 93.7142C88.5157 94.4174 87.2656 94.8079 85.9376 94.8079Z" fill="#D7B354"/>
<path d="M89.0626 117.464H7.81258C3.51561 117.464 0 113.949 0 109.652V112.777C0 117.074 3.51561 120.589 7.81258 120.589H89.0626C93.3596 120.589 96.8752 117.074 96.8752 112.777V109.652C96.875 113.949 93.3594 117.464 89.0626 117.464Z" fill="#B27245"/>
<path d="M89.0626 56.5267H6.25006C2.81241 56.5267 0 53.7141 0 50.2766V53.4016C0 56.8391 2.81241 59.6517 6.25006 59.6517H89.0626C93.3596 59.6517 96.8752 63.1673 96.8752 67.4643V64.3393C96.875 60.0423 93.3594 56.5267 89.0626 56.5267Z" fill="#CA8B5F"/>
<path d="M51.4269 25.4128C51.0151 25.8246 50.3963 25.9469 49.8586 25.7243C49.3209 25.5017 48.9705 24.9773 48.9705 24.3956L48.9705 2.01024C48.9843 1.22519 49.6246 0.595868 50.4096 0.595867C51.1942 0.596325 51.8345 1.22473 51.8483 2.00978L51.8478 24.3956C51.8483 24.7771 51.6967 25.1431 51.4269 25.4128Z" fill="#84B5CB"/>
<path d="M59.1449 21.0451C58.7331 21.4569 58.1143 21.5801 57.5771 21.357C57.0393 21.1344 56.6885 20.6095 56.6885 20.0278L56.6885 7.81791C56.7022 7.03286 57.3425 6.40354 58.1271 6.404C58.9117 6.40354 59.552 7.03286 59.5662 7.81745L59.5658 20.0278C59.5662 20.4094 59.4146 20.7753 59.1449 21.0451Z" fill="#84B5CB"/>
<path d="M43.2869 20.9929C42.8747 21.4042 42.2559 21.5274 41.7187 21.3043C41.181 21.0817 40.8306 20.5573 40.8301 19.9751L40.8306 13.8702C40.8439 13.0856 41.4842 12.4563 42.2692 12.4563C43.0543 12.4563 43.6941 13.0851 43.7079 13.8702L43.7079 19.9756C43.7079 20.3567 43.5563 20.7226 43.2869 20.9929Z" fill="#84B5CB"/>
<path d="M50 140C61.0457 140 70 131.046 70 120C70 108.954 61.0457 100 50 100C38.9543 100 30 108.954 30 120C30 131.046 38.9543 140 50 140Z" fill="#F15249"/>
<path d="M41.6089 129.022L52.3975 139.811C61.4827 138.738 68.6751 131.609 69.8108 122.524L58.959 111.672L41.6089 129.022Z" fill="#AD0E0E"/>
<path d="M59.4637 124.416C60.347 125.3 60.347 126.814 59.4637 127.697L57.6971 129.464C56.8138 130.347 55.2996 130.347 54.4164 129.464L40.5362 115.584C39.653 114.7 39.653 113.186 40.5362 112.303L42.3659 110.473C43.2492 109.59 44.7634 109.59 45.6466 110.473L59.4637 124.416Z" fill="white"/>
<path d="M52.1451 117.035L47.0347 122.145L54.4164 129.464C55.2997 130.347 56.8138 130.347 57.6971 129.464L59.5268 127.634C60.4101 126.751 60.4101 125.237 59.5268 124.353L52.1451 117.035Z" fill="#D6D6D6"/>
<path d="M54.4164 110.536C55.2996 109.653 56.8138 109.653 57.6971 110.536L59.5268 112.366C60.4101 113.249 60.4101 114.763 59.5268 115.647L45.5836 129.464C44.7003 130.347 43.1861 130.347 42.3028 129.464L40.5362 127.697C39.653 126.814 39.653 125.3 40.5362 124.416L54.4164 110.536Z" fill="white"/>
</svg>
