<svg width="20" height="20" viewBox="0 0 20 20" fill="none" xmlns="http://www.w3.org/2000/svg">
<circle cx="10" cy="10" r="10" fill="#FF5B5B"/>
<path d="M10.5307 15.7005C10.5307 15.7663 10.5073 15.8172 10.4691 15.8512C10.4352 15.8894 10.3864 15.9127 10.3205 15.9127H8.74552C8.63089 15.9127 8.53537 15.8151 8.53537 15.7005V14.1254C8.53537 14.0108 8.63089 13.9174 8.74552 13.9174H10.3205C10.4352 13.9174 10.5307 14.0108 10.5307 14.1254V15.7005ZM11.0656 5.21439C11.0444 5.48822 11.0232 5.76205 10.9998 6.03587C10.9043 7.23307 10.8088 8.43026 10.7132 9.62958C10.6538 10.3874 10.5923 11.1452 10.5328 11.903C10.5307 11.9412 10.5201 11.9773 10.501 12.007C10.4734 12.0622 10.4203 12.1046 10.346 12.1131H10.3439H10.3418C10.3354 12.1131 10.3269 12.1131 10.3205 12.1131H8.74552C8.6224 12.1131 8.54174 12.0155 8.53325 11.9009C8.51202 11.627 8.48867 11.3532 8.46744 11.0794C8.37192 9.88218 8.2764 8.68498 8.18088 7.48567C8.12145 6.72787 8.05989 5.97007 8.00045 5.21227C7.99196 5.09764 8.10446 5 8.21272 5H10.8512C10.9595 5.00212 11.0741 5.09977 11.0656 5.21439Z" fill="white"/>
</svg>
