<svg width="107" height="30" viewBox="0 0 107 30" fill="none" xmlns="http://www.w3.org/2000/svg">
<path d="M0.62195 2.10442C0.994921 1.72854 1.52537 1.53336 2.05126 1.53377C3.15069 1.5346 4.25054 1.53543 5.35039 1.53336C4.81124 2.09654 4.24805 2.63652 3.70186 3.19308C2.46816 4.42347 1.23735 5.65759 0.00447542 6.8888C-0.00422723 5.78481 0.00364697 4.68082 0.000331678 3.57682C-0.0100286 3.02731 0.222871 2.48112 0.62195 2.10442Z" fill="#00E59E"/>
<path d="M11.3858 1.53622C13.1504 1.53291 14.9149 1.53664 16.6795 1.53415C14.4197 3.80886 12.1458 6.06989 9.88274 8.34087C6.58692 11.6334 3.29815 14.9329 0.000671387 18.2234C0.00150021 16.4563 0.0010858 14.6897 0.000671387 12.9226C3.79669 9.12825 7.59353 5.33389 11.3858 1.53622Z" fill="#00E59E"/>
<path d="M0.00228792 24.2055C7.55992 16.6495 15.1101 9.08569 22.6702 1.5322C23.838 1.53634 25.0063 1.53344 26.1741 1.53344C26.6718 1.53178 27.1736 1.69962 27.5462 2.03612C27.9747 2.40495 28.2383 2.96316 28.2316 3.53049C28.2325 11.5017 28.232 19.4729 28.232 27.4441C28.2308 27.6663 28.2399 27.8896 28.2084 28.1109C28.1073 28.6675 27.7658 29.1722 27.2843 29.4698C26.9208 29.7052 26.4791 29.7881 26.0514 29.7773C24.8844 29.7794 23.717 29.7736 22.55 29.7802C21.0432 28.2912 19.5522 26.7856 18.0508 25.2909C15.798 23.0373 13.542 20.7874 11.2905 18.5326C10.9842 18.8032 10.7124 19.1128 10.4189 19.3983C9.75092 20.0767 9.07625 20.7485 8.41071 21.4294C10.6311 23.6548 12.8416 25.8897 15.0624 28.1147C15.6095 28.6708 16.1689 29.2153 16.7081 29.7785C14.8482 29.7752 12.9887 29.7794 11.1293 29.7769C9.28388 27.9037 7.44098 26.0285 5.59726 24.1545C4.65158 25.1263 3.71128 26.1031 2.7631 27.0724C3.25086 27.5498 3.74692 28.0193 4.23095 28.5009C4.6694 28.924 5.11323 29.3421 5.53925 29.7777C4.39133 29.7773 3.24341 29.7769 2.09548 29.7781C1.56504 29.7852 1.02671 29.6007 0.643383 29.2274C0.244719 28.8577 0.00187374 28.3223 0.00187374 27.7773C0.00187374 26.5867 0.0014591 25.3961 0.00228792 24.2055Z" fill="#00E59E"/>
<path d="M53.7168 1.31327H46.658L39.9685 10.5882V1.31327H33.8947V29.5896H39.9685V19.9863L48.4637 29.5896H56.2613L43.0055 15.3078L53.7168 1.31327Z" fill="white"/>
<path d="M68.6621 20.5609C68.6621 23.2285 67.1847 24.4596 65.2148 24.4596C63.5321 24.4596 61.8085 23.3926 61.8085 20.643V10.4241H56.1039C56.1039 10.4241 56.1039 16.6211 56.1039 21.8741C56.1039 27.1272 59.223 30 63.6963 30C65.6251 30 67.6771 28.8098 68.6621 26.9631V29.5896H74.3666V10.4241H68.6621V20.5609Z" fill="white"/>
<path d="M91.8852 19.9453C91.8852 22.6129 89.9153 24.5828 87.4529 24.5828C84.9905 24.5828 83.0206 22.736 83.0206 19.9453C83.0206 17.2777 84.9905 15.3899 87.4529 15.3899C89.9153 15.3899 91.8852 17.1546 91.8852 19.9453ZM97.6718 0H92.0083V12.7633C91.0644 11.0807 88.8482 10.0137 86.3859 10.0137C83.8414 10.0137 81.6663 10.9576 79.8195 12.8044C78.0138 14.6512 77.1109 17.0725 77.1109 20.0684C77.1109 22.9822 78.0138 25.4036 79.8195 27.2503C81.6663 29.0971 83.8414 30 86.3859 30C88.8482 30 91.0644 28.974 92.0083 27.2093V29.5896H97.6718V0Z" fill="white"/>
<path d="M100.445 10.4241V29.5896H106.108V10.4241H100.445ZM103.276 0C101.306 0 99.7058 1.47743 99.7058 3.32421C99.7058 5.171 101.306 6.68947 103.276 6.68947C105.205 6.68947 106.765 5.171 106.765 3.32421C106.765 1.47743 105.205 0 103.276 0Z" fill="white"/>
</svg>
