<svg width="22" height="22" viewBox="0 0 22 22" fill="none" xmlns="http://www.w3.org/2000/svg">
<path d="M12.8632 7.93904C13.3731 7.93904 13.7767 7.53952 13.7767 7.03486V4.44848L19.2153 3.10274V18.9784L13.7767 17.6327V15.0463C13.7767 14.5416 13.3731 14.1421 12.8632 14.1421C12.3534 14.1421 11.9497 14.5416 11.9497 15.0463V18.3266C11.9497 18.7471 12.2259 19.1046 12.6295 19.1887L19.8739 20.976C20.1501 21.0391 20.4263 20.976 20.66 20.8078C20.8724 20.6396 20.9999 20.3872 20.9999 20.0929V1.90417C20.9999 1.63082 20.8724 1.35746 20.66 1.18924C20.49 1.06307 20.2988 1 20.1076 1C20.0439 1 19.9589 0.999995 19.8952 1.02102L12.6508 2.80835C12.2471 2.91349 11.971 3.27096 11.971 3.67048V6.95075C11.9497 7.53951 12.3534 7.93904 12.8632 7.93904Z" fill="#8FA9FF" stroke="#18379A" stroke-width="0.3"/>
<path d="M1.27087 11.6609L5.05239 15.4037C5.41355 15.7612 5.98715 15.7612 6.32707 15.4037C6.68822 15.0463 6.68822 14.4785 6.32707 14.1421L4.09639 11.9342H16.0713C16.5812 11.9342 16.9848 11.5347 16.9848 11.0301C16.9848 10.5254 16.5812 10.1259 16.0713 10.1259H4.07515L6.32707 7.89697C6.68822 7.5395 6.68822 6.97176 6.32707 6.63533C6.15711 6.46711 5.92342 6.383 5.68973 6.383C5.45604 6.383 5.22235 6.46711 5.05239 6.63533L1.27087 10.3782C0.909711 10.7567 0.909711 11.3244 1.27087 11.6609Z" fill="#8FA9FF" stroke="#18379A" stroke-width="0.3"/>
</svg>
