<svg width="22" height="22" viewBox="0 0 22 22" fill="none" xmlns="http://www.w3.org/2000/svg">
<path d="M18.5 1H3.5C2.122 1 1 2.121 1 3.5V18.5C1 19.879 2.122 21 3.5 21H18.5C19.878 21 21 19.879 21 18.5V3.5C21 2.121 19.878 1 18.5 1ZM3.5 2H18.5C19.327 2 20 2.673 20 3.5V14H15.449C15.262 12.336 14.183 10.942 12.685 10.334C13.183 9.877 13.5 9.228 13.5 8.5C13.5 7.121 12.378 6 11 6C9.622 6 8.5 7.121 8.5 8.5C8.5 9.228 8.817 9.877 9.314 10.334C7.816 10.942 6.737 12.336 6.55 14H2V3.5C2 2.673 2.673 2 3.5 2ZM9.5 8.5C9.5 7.673 10.173 7 11 7C11.827 7 12.5 7.673 12.5 8.5C12.5 9.327 11.827 10 11 10C10.173 10 9.5 9.327 9.5 8.5ZM14.449 14H7.551C7.796 12.309 9.242 11 11 11C12.758 11 14.204 12.309 14.449 14ZM18.5 20H3.5C2.673 20 2 19.327 2 18.5V15H20V18.5C20 19.327 19.327 20 18.5 20Z" fill="#8FA9FF" stroke="#8FA9FF" stroke-width="0.3"/>
<path d="M15.4999 17H6.49994C6.22394 17 5.99994 17.224 5.99994 17.5C5.99994 17.776 6.22394 18 6.49994 18H15.4999C15.7759 18 15.9999 17.776 15.9999 17.5C15.9999 17.224 15.7759 17 15.4999 17Z" fill="#8FA9FF" stroke="#8FA9FF" stroke-width="0.3"/>
</svg>
