<svg width="16" height="16" viewBox="0 0 16 16" fill="none" xmlns="http://www.w3.org/2000/svg">
<path d="M12.4443 3.21104C12.3393 3.11388 12.1808 3.03863 12.0377 3.03424L7.37071 2.89271C7.0796 2.90825 6.7287 3.14539 6.71664 3.47608C6.70475 3.80178 7.01408 4.10107 7.33977 4.09044L10.6191 4.18775L2.82767 11.9791C2.59336 12.2134 2.59337 12.5934 2.82769 12.8277C3.06201 13.062 3.44192 13.062 3.67623 12.8277L11.4676 5.03631L11.5649 8.3156C11.5652 8.6054 11.8534 8.94717 12.1793 8.93873C12.5051 8.93032 12.759 8.57503 12.7626 8.28464L12.6211 3.61764C12.6163 3.45793 12.5575 3.32367 12.4443 3.21104Z" fill="#10B683"/>
</svg>
