<svg width="24" height="22" viewBox="0 0 24 22" fill="none" xmlns="http://www.w3.org/2000/svg">
<path fill-rule="evenodd" clip-rule="evenodd" d="M11.909 1C9.90093 1 8.27276 2.62817 8.27276 4.63624C8.27276 5.65732 8.69712 6.57777 9.37539 7.23831L6.51232 12.248L8.09249 13.1474L10.9591 8.13148C11.2637 8.21412 11.5779 8.27275 11.909 8.27275C13.9171 8.27275 15.5452 6.64431 15.5452 4.63624C15.5452 2.62817 13.9171 1 11.909 1ZM11.909 6.4545C10.9048 6.4545 10.0907 5.64041 10.0907 4.63624C10.0907 3.63207 10.9048 2.81826 11.909 2.81826C12.9132 2.81826 13.7273 3.63207 13.7273 4.63624C13.7273 5.64041 12.9132 6.4545 11.909 6.4545ZM8.14375 16.4545C7.73821 14.8893 6.3285 13.7272 4.63624 13.7272C2.62817 13.7272 1 15.3554 1 17.3635C1 19.3716 2.62817 21 4.63624 21C6.3285 21 7.73821 19.8376 8.14375 18.2728H13.8085V16.4545H8.14375ZM4.63624 19.1817C3.63207 19.1817 2.81826 18.3677 2.81826 17.3635C2.81826 16.3593 3.63207 15.5455 4.63624 15.5455C5.64041 15.5455 6.4545 16.3593 6.4545 17.3635C6.4545 18.3677 5.64041 19.1817 4.63624 19.1817ZM18.2318 13.8685C18.5362 13.7859 18.8504 13.7272 19.1817 13.7272C21.1898 13.7272 22.818 15.3554 22.818 17.3635C22.818 19.3716 21.1898 21 19.1817 21C17.1737 21 15.5452 19.3716 15.5452 17.3635C15.5452 16.3419 15.9699 15.422 16.6479 14.7614L13.7848 9.75174L15.3652 8.85229L18.2318 13.8685ZM17.3635 17.3635C17.3635 18.3677 18.1776 19.1817 19.1817 19.1817C20.1859 19.1817 20.9997 18.3677 20.9997 17.3635C20.9997 16.3593 20.1859 15.5455 19.1817 15.5455C18.1776 15.5455 17.3635 16.3593 17.3635 17.3635Z" fill="#8FAAFF"/>
<path d="M9.37539 7.23831L9.59244 7.36236L9.6885 7.19427L9.54981 7.05921L9.37539 7.23831ZM6.51232 12.248L6.29527 12.1239L6.17101 12.3414L6.38865 12.4653L6.51232 12.248ZM8.09249 13.1474L7.96882 13.3647L8.18571 13.4882L8.30955 13.2715L8.09249 13.1474ZM10.9591 8.13148L11.0246 7.8902L10.838 7.83959L10.742 8.00744L10.9591 8.13148ZM8.14375 16.4545L7.90175 16.5172L7.95027 16.7045H8.14375V16.4545ZM8.14375 18.2728V18.0228H7.95028L7.90175 18.21L8.14375 18.2728ZM13.8085 18.2728V18.5228H14.0585V18.2728H13.8085ZM13.8085 16.4545H14.0585V16.2045H13.8085V16.4545ZM18.2318 13.8685L18.0148 13.9926L18.1107 14.1605L18.2973 14.1098L18.2318 13.8685ZM16.6479 14.7614L16.8223 14.9405L16.961 14.8054L16.8649 14.6374L16.6479 14.7614ZM13.7848 9.75174L13.6611 9.53446L13.4435 9.65834L13.5677 9.87579L13.7848 9.75174ZM15.3652 8.85229L15.5823 8.72825L15.4585 8.51158L15.2416 8.63501L15.3652 8.85229ZM8.52276 4.63624C8.52276 2.76624 10.039 1.25 11.909 1.25V0.75C9.76286 0.75 8.02276 2.4901 8.02276 4.63624H8.52276ZM9.54981 7.05921C8.91732 6.44324 8.52276 5.58639 8.52276 4.63624H8.02276C8.02276 5.72825 8.47693 6.71229 9.20097 7.41741L9.54981 7.05921ZM6.72938 12.372L9.59244 7.36236L9.15834 7.11426L6.29527 12.1239L6.72938 12.372ZM8.21616 12.9302L6.636 12.0307L6.38865 12.4653L7.96882 13.3647L8.21616 12.9302ZM10.742 8.00744L7.87544 13.0234L8.30955 13.2715L11.1762 8.25553L10.742 8.00744ZM11.909 8.02275C11.6075 8.02275 11.3165 7.96939 11.0246 7.8902L10.8937 8.37276C11.211 8.45884 11.5484 8.52275 11.909 8.52275V8.02275ZM15.2952 4.63624C15.2952 6.50627 13.779 8.02275 11.909 8.02275V8.52275C14.0552 8.52275 15.7952 6.78236 15.7952 4.63624H15.2952ZM11.909 1.25C13.779 1.25 15.2952 2.76624 15.2952 4.63624H15.7952C15.7952 2.4901 14.0551 0.75 11.909 0.75V1.25ZM9.84075 4.63624C9.84075 5.77848 10.7668 6.7045 11.909 6.7045V6.2045C11.0429 6.2045 10.3407 5.50234 10.3407 4.63624H9.84075ZM11.909 2.56826C10.7668 2.56826 9.84075 3.49395 9.84075 4.63624H10.3407C10.3407 3.77019 11.0429 3.06826 11.909 3.06826V2.56826ZM13.9773 4.63624C13.9773 3.49395 13.0512 2.56826 11.909 2.56826V3.06826C12.7752 3.06826 13.4773 3.77019 13.4773 4.63624H13.9773ZM11.909 6.7045C13.0512 6.7045 13.9773 5.77848 13.9773 4.63624H13.4773C13.4773 5.50234 12.7751 6.2045 11.909 6.2045V6.7045ZM4.63624 13.9772C6.21015 13.9772 7.52365 15.058 7.90175 16.5172L8.38576 16.3918C7.95277 14.7207 6.44684 13.4772 4.63624 13.4772V13.9772ZM1.25 17.3635C1.25 15.4935 2.76624 13.9772 4.63624 13.9772V13.4772C2.4901 13.4772 0.75 15.2173 0.75 17.3635H1.25ZM4.63624 20.75C2.76626 20.75 1.25 19.2335 1.25 17.3635H0.75C0.75 19.5096 2.49007 21.25 4.63624 21.25V20.75ZM7.90175 18.21C7.52365 19.669 6.21013 20.75 4.63624 20.75V21.25C6.44686 21.25 7.95277 20.0063 8.38576 18.3355L7.90175 18.21ZM13.8085 18.0228H8.14375V18.5228H13.8085V18.0228ZM13.5585 16.4545V18.2728H14.0585V16.4545H13.5585ZM8.14375 16.7045H13.8085V16.2045H8.14375V16.7045ZM2.56826 17.3635C2.56826 18.5057 3.49395 19.4317 4.63624 19.4317V18.9317C3.77019 18.9317 3.06826 18.2296 3.06826 17.3635H2.56826ZM4.63624 15.2955C3.494 15.2955 2.56826 16.2212 2.56826 17.3635H3.06826C3.06826 16.4974 3.77014 15.7955 4.63624 15.7955V15.2955ZM6.7045 17.3635C6.7045 16.2212 5.77844 15.2955 4.63624 15.2955V15.7955C5.50239 15.7955 6.2045 16.4974 6.2045 17.3635H6.7045ZM4.63624 19.4317C5.77848 19.4317 6.7045 18.5057 6.7045 17.3635H6.2045C6.2045 18.2296 5.50234 18.9317 4.63624 18.9317V19.4317ZM19.1817 13.4772C18.8208 13.4772 18.4835 13.5412 18.1663 13.6273L18.2973 14.1098C18.589 14.0306 18.8799 13.9772 19.1817 13.9772V13.4772ZM23.068 17.3635C23.068 15.2173 21.3279 13.4772 19.1817 13.4772V13.9772C21.0517 13.9772 22.568 15.4935 22.568 17.3635H23.068ZM19.1817 21.25C21.3279 21.25 23.068 19.5096 23.068 17.3635H22.568C22.568 19.2335 21.0517 20.75 19.1817 20.75V21.25ZM15.2952 17.3635C15.2952 19.5096 17.0356 21.25 19.1817 21.25V20.75C17.3117 20.75 15.7952 19.2335 15.7952 17.3635H15.2952ZM16.4734 14.5824C15.7497 15.2874 15.2952 16.2709 15.2952 17.3635H15.7952C15.7952 16.4129 16.19 15.5565 16.8223 14.9405L16.4734 14.5824ZM13.5677 9.87579L16.4308 14.8855L16.8649 14.6374L14.0018 9.62769L13.5677 9.87579ZM15.2416 8.63501L13.6611 9.53446L13.9084 9.96902L15.4889 9.06957L15.2416 8.63501ZM18.4489 13.7445L15.5823 8.72825L15.1482 8.97633L18.0148 13.9926L18.4489 13.7445ZM19.1817 18.9317C18.3156 18.9317 17.6135 18.2296 17.6135 17.3635H17.1135C17.1135 18.5057 18.0395 19.4317 19.1817 19.4317V18.9317ZM20.7497 17.3635C20.7497 18.2296 20.0478 18.9317 19.1817 18.9317V19.4317C20.324 19.4317 21.2497 18.5057 21.2497 17.3635H20.7497ZM19.1817 15.7955C20.0478 15.7955 20.7497 16.4974 20.7497 17.3635H21.2497C21.2497 16.2212 20.324 15.2955 19.1817 15.2955V15.7955ZM17.6135 17.3635C17.6135 16.4974 18.3156 15.7955 19.1817 15.7955V15.2955C18.0395 15.2955 17.1135 16.2212 17.1135 17.3635H17.6135Z" fill="#8FAAFF"/>
</svg>
