<svg width="115" height="100" viewBox="0 0 115 100" fill="none" xmlns="http://www.w3.org/2000/svg">
<path d="M101.421 59.9866L68.9008 49.4566L89.7631 21.4153C90.522 21.7475 91.0942 22.4 91.3238 23.1963L101.762 57.6072C102.016 58.4108 101.891 59.2869 101.421 59.9866Z" fill="#F29C1F"/>
<path d="M101.42 59.9867C101.065 60.5736 100.502 61.0063 99.842 61.1987L42.0164 78.7497C41.3558 78.9511 40.6448 78.9015 40.0184 78.6115L61.2147 51.777L64.9198 53.0884C65.5099 53.2995 66.169 53.1039 66.5488 52.6048L68.9007 49.4566L101.42 59.9867Z" fill="#E57E25"/>
<path d="M61.2147 51.777L40.0184 78.6115C39.2481 78.2857 38.664 77.6319 38.425 76.83L27.9812 42.3997C27.7396 41.6095 27.8522 40.7531 28.29 40.0522L61.2147 51.777Z" fill="#F29C1F"/>
<path d="M89.7632 21.4154L68.9008 49.4566L66.5489 52.6048C66.169 53.1039 65.5099 53.2995 64.9199 53.0884L61.2148 51.7771L28.29 40.0522C28.6586 39.456 29.2311 39.0143 29.9009 38.8083L87.7324 21.2766C88.4031 21.0659 89.128 21.1155 89.7632 21.4154Z" fill="#F0C419"/>
<path d="M5.16366 69.1836C4.65011 68.9091 4.35346 68.3525 4.41039 67.7733C4.46732 67.1941 4.86747 66.7066 5.42411 66.5377L26.8456 60.0399C27.6009 59.8252 28.3889 60.2552 28.6168 61.0065C28.8441 61.7574 28.4286 62.5526 27.6814 62.7936L6.25931 69.2911C5.89434 69.4023 5.50013 69.3635 5.16366 69.1836Z" fill="#84B5CB"/>
<path d="M10.7659 52.598C10.2523 52.3234 9.95479 51.7671 10.0123 51.1882C10.0692 50.609 10.4697 50.1209 11.0263 49.9521L22.7105 46.4078C23.4658 46.1931 24.2539 46.6232 24.4817 47.3744C24.7096 48.1257 24.2936 48.9205 23.5463 49.1616L11.8615 52.7055C11.4965 52.8167 11.1023 52.7778 10.7659 52.598Z" fill="#84B5CB"/>
<path d="M19.0359 79.862C18.5224 79.5875 18.2249 79.0311 18.2824 78.4522C18.3393 77.8731 18.7398 77.385 19.2964 77.2161L30.9806 73.6719C31.7359 73.4572 32.5239 73.8872 32.7513 74.6382C32.9794 75.3889 32.5631 76.1843 31.8164 76.4256L20.1316 79.9695C19.7666 80.0807 19.3724 80.0419 19.0359 79.862Z" fill="#84B5CB"/>
<path d="M6.69555 60.2127C6.1823 59.9377 5.88478 59.3813 5.94228 58.8024C5.99921 58.2232 6.39936 57.7357 6.95631 57.5663L12.7986 55.7946C13.5532 55.5796 14.3413 56.0096 14.5692 56.7609C14.7971 57.5121 14.381 58.307 13.6337 58.548L7.7912 60.3203C7.42653 60.4309 7.03232 60.392 6.69555 60.2127Z" fill="#84B5CB"/>
<path d="M11.4212 75.7917C10.9083 75.5175 10.6107 74.9611 10.6677 74.3819C10.7246 73.8028 11.1251 73.3147 11.6823 73.1461L17.5242 71.3736C18.2795 71.1588 19.067 71.5886 19.2949 72.3399C19.5227 73.0911 19.1064 73.8865 18.3594 74.127L12.5175 75.8995C12.1519 76.0104 11.7577 75.9716 11.4212 75.7917Z" fill="#84B5CB"/>
<path d="M44.5501 41.2866C44.0371 41.0124 43.7396 40.456 43.7965 39.8768C43.8535 39.2976 44.2539 38.8095 44.8111 38.641L54.5478 35.687C55.3031 35.4723 56.0912 35.9024 56.319 36.6536C56.5464 37.4046 56.1306 38.2003 55.3836 38.4408L45.6463 41.3944C45.2808 41.5053 44.8866 41.4664 44.5501 41.2866Z" fill="#F9EAB0"/>
<path d="M60.1297 36.5613C59.6164 36.2862 59.3189 35.7298 59.3764 35.1509C59.4333 34.5718 59.8335 34.0842 60.3904 33.9148L62.3379 33.3245C63.0926 33.1095 63.8807 33.5396 64.1086 34.2908C64.3364 35.0421 63.9201 35.8375 63.1731 36.0779L61.2253 36.6688C60.8607 36.7794 60.4661 36.7411 60.1297 36.5613Z" fill="#F9EAB0"/>
<path d="M72 79.5582C77.5228 79.5582 82 75.081 82 69.5582C82 64.0353 77.5228 59.5582 72 59.5582C66.4772 59.5582 62 64.0353 62 69.5582C62 75.081 66.4772 79.5582 72 79.5582Z" fill="#00E59E"/>
<path d="M69.4448 74.0692L74.5868 79.2112C78.8455 78.0755 82 74.1954 82 69.5582C82 69.4635 82 69.3689 82 69.2743L77.9622 65.5519L69.4448 74.0692Z" fill="#00D492"/>
<path d="M72.2522 71.7981C72.6938 72.2397 72.6938 72.9968 72.2522 73.4384L71.3374 74.3533C70.8957 74.7949 70.1386 74.7949 69.697 74.3533L65.6907 70.3154C65.249 69.8738 65.249 69.1167 65.6907 68.675L66.6055 67.7602C67.0471 67.3186 67.8042 67.3186 68.2459 67.7602L72.2522 71.7981Z" fill="white"/>
<path d="M75.7538 64.8264C76.1954 64.3847 76.9525 64.3847 77.3942 64.8264L78.309 65.7412C78.7506 66.1828 78.7506 66.9399 78.309 67.3816L71.3689 74.2901C70.9273 74.7317 70.1702 74.7317 69.7285 74.2901L68.8137 73.3753C68.3721 72.9336 68.3721 72.1765 68.8137 71.7349L75.7538 64.8264Z" fill="white"/>
</svg>
