<svg width="20" height="20" viewBox="0 0 20 20" fill="none" xmlns="http://www.w3.org/2000/svg">
<path d="M10.9302 1.39535C10.5449 1.39535 10.2326 1.08299 10.2326 0.697675C10.2326 0.31236 10.5449 0 10.9302 0H16.5116C18.4382 0 20 1.5618 20 3.48837V16.5116C20 18.4382 18.4382 20 16.5116 20H3.48837C1.5618 20 0 18.4382 0 16.5116V10.9302C0 10.5449 0.31236 10.2326 0.697675 10.2326C1.08299 10.2326 1.39535 10.5449 1.39535 10.9302V16.5116C1.39535 17.6676 2.33243 18.6047 3.48837 18.6047H16.5116C17.6676 18.6047 18.6047 17.6676 18.6047 16.5116V3.48837C18.6047 2.33243 17.6676 1.39535 16.5116 1.39535H10.9302ZM4.18605 5.5814H0.697675C0.31236 5.5814 0 5.26904 0 4.88372C0 4.49841 0.31236 4.18605 0.697675 4.18605H4.18605V0.697675C4.18605 0.31236 4.49841 0 4.88372 0C5.26904 0 5.5814 0.31236 5.5814 0.697675V4.18605H9.06977C9.45508 4.18605 9.76744 4.49841 9.76744 4.88372C9.76744 5.26904 9.45508 5.5814 9.06977 5.5814H5.5814V9.06977C5.5814 9.45508 5.26904 9.76744 4.88372 9.76744C4.49841 9.76744 4.18605 9.45508 4.18605 9.06977V5.5814Z" fill="#8FAAFF"/>
</svg>
