<svg width="18" height="15" viewBox="0 0 18 15" fill="none" xmlns="http://www.w3.org/2000/svg">
<path d="M16.7273 6.32445H3.99687L8.32288 1.99843C8.7931 1.52821 8.7931 0.775862 8.32288 0.352665C7.85266 -0.117555 7.10031 -0.117555 6.67712 0.352665L0.329154 6.65361C0.0940443 6.88872 0 7.21787 0 7.5C0 7.78213 0.0940443 8.11129 0.329154 8.3464L6.63009 14.6473C7.10031 15.1176 7.85266 15.1176 8.27586 14.6473C8.74608 14.1771 8.74608 13.4248 8.27586 13.0016L3.94984 8.67555H16.6803C17.2915 8.67555 17.7618 8.15831 17.7618 7.5C17.7618 6.84169 17.3386 6.32445 16.7273 6.32445Z" fill="#0F8CFF"/>
</svg>
