<svg width="100" height="115" viewBox="0 0 100 115" fill="none" xmlns="http://www.w3.org/2000/svg">
<path d="M7.81258 16.4642H85.9376C90.2345 16.4642 93.7501 19.9798 93.7501 24.2768V33.6519C93.7501 37.9489 90.2345 41.4645 85.9376 41.4645H7.81258C3.51561 41.4641 0 37.9485 0 33.6517V24.2766C0 19.9798 3.51561 16.4642 7.81258 16.4642Z" fill="#A86A3F"/>
<path d="M24.9219 24.8234L73.8282 11.8548C75.4689 11.386 77.1875 12.4017 77.6562 14.0423L85.7812 44.0423C86.25 45.683 85.2344 47.4016 83.5937 47.8704L19.9219 64.8234C18.2813 65.2921 16.5626 64.2765 16.0939 62.6358L10.1562 40.6047L24.9219 24.8234Z" fill="#3DB39E"/>
<path d="M77.2657 43.1048L66.7188 45.9172C65.8595 46.1517 65 45.6828 64.8439 44.8235C64.6094 43.9641 65.0784 43.1046 65.9377 42.9485L75.0001 40.5267L70.1565 22.4018L61.094 24.8236C60.2347 25.058 59.3752 24.5891 59.2191 23.7298C58.9846 22.8705 59.4535 22.011 60.3129 21.8549L70.8597 19.0425C71.719 18.808 72.5785 19.2769 72.7346 20.1362L78.3596 41.2299C78.5937 42.0892 78.125 42.9485 77.2657 43.1048ZM33.5156 54.9017L22.9688 57.7142C22.1095 57.9486 21.25 57.4797 21.0939 56.6204L15.4688 35.5267C15.2344 34.6674 15.7033 33.8079 16.5626 33.6518L27.1095 30.8394C27.9688 30.6049 28.8283 31.0738 28.9844 31.9332C29.2189 32.7925 28.7499 33.652 27.8906 33.8081L18.8281 36.2299L23.6718 54.3549L32.7343 51.933C33.5936 51.6986 34.4531 52.1675 34.6092 53.0268C34.8437 53.808 34.3749 54.6673 33.5156 54.9017Z" fill="#78CABB"/>
<path d="M0.624985 35.7611C14.5311 27.7922 52.0313 5.83901 52.0313 5.83901C53.5157 4.9797 55.4687 5.44844 56.3283 6.9328L71.9532 33.8078C72.8125 35.2921 72.2656 37.1671 70.7813 38.0266L13.5936 70.839C12.1093 71.6983 10.1562 71.2296 9.29668 69.7452C9.29668 69.7452 4.92175 60.8391 0.546631 53.3389C0.546829 35.7611 0.624985 41.5422 0.624985 35.7611Z" fill="#5ABEAC"/>
<path d="M63.9846 32.9485L53.0472 14.0423C52.5784 13.2611 51.641 13.0266 50.9378 13.4954L41.4847 18.9641C40.7036 19.4328 40.4691 20.3703 40.9378 21.0735C41.4066 21.8546 42.344 22.0891 43.0472 21.6204L51.1722 16.9328L60.5473 33.1828L52.4223 37.8704C51.6412 38.3391 51.4067 39.2766 51.8754 39.9798C52.3442 40.7609 53.2816 40.9954 53.9848 40.5267L63.4379 35.058C64.1409 34.6674 64.4533 33.7299 63.9846 32.9485ZM22.5784 55.058L14.4534 59.7456L5.07832 43.4954L13.2033 38.8078C13.9845 38.3391 14.2189 37.4016 13.7502 36.6984C13.2815 35.9173 12.344 35.6828 11.6408 36.1515L2.18776 41.6202C1.4066 42.089 1.17213 43.0264 1.64087 43.7297L12.5783 62.6359C13.047 63.4171 13.9845 63.6516 14.6877 63.1828L24.1407 57.7141C24.9219 57.2454 25.1564 56.3079 24.6876 55.6047C24.297 54.9017 23.3596 54.5891 22.5784 55.058ZM26.5628 27.4798C20.5472 30.9173 18.5159 38.5736 21.9534 44.5892C25.469 50.6048 33.0471 52.636 39.0627 49.1986C45.0783 45.7611 47.1095 38.1048 43.6721 32.0892C40.1565 26.1516 32.5784 24.0424 26.5628 27.4798ZM63.9846 32.9485L53.0472 14.0423C52.5784 13.2611 51.641 13.0266 50.9378 13.4954L41.4847 18.9641C40.7036 19.4328 40.4691 20.3703 40.9378 21.0735C41.4066 21.8546 42.344 22.0891 43.0472 21.6204L51.1722 16.9328L60.5473 33.1828L52.4223 37.8704C51.6412 38.3391 51.4067 39.2766 51.8754 39.9798C52.3442 40.7609 53.2816 40.9954 53.9848 40.5267L63.4379 35.058C64.1409 34.6674 64.4533 33.7299 63.9846 32.9485ZM22.5784 55.058L14.4534 59.7456L5.07832 43.4954L13.2033 38.8078C13.9845 38.3391 14.2189 37.4016 13.7502 36.6984C13.2815 35.9173 12.344 35.6828 11.6408 36.1515L2.18776 41.6202C1.4066 42.089 1.17213 43.0264 1.64087 43.7297L12.5783 62.6359C13.047 63.4171 13.9845 63.6516 14.6877 63.1828L24.1407 57.7141C24.9219 57.2454 25.1564 56.3079 24.6876 55.6047C24.297 54.9017 23.3596 54.5891 22.5784 55.058ZM26.5628 27.4798C20.5472 30.9173 18.5159 38.5736 21.9534 44.5892C25.469 50.6048 33.0471 52.636 39.0627 49.1986C45.0783 45.7611 47.1095 38.1048 43.6721 32.0892C40.1565 26.1516 32.5784 24.0424 26.5628 27.4798Z" fill="#8CD2C5"/>
<path d="M89.0626 94.5892H7.81258C3.51561 94.5892 0 91.0736 0 86.7766V30.5267H89.0626C93.3596 30.5267 96.8752 34.0423 96.8752 38.3392V86.7768C96.875 91.0736 93.3594 94.5892 89.0626 94.5892ZM6.25006 30.5267H0V24.2766C0 27.7141 2.81241 30.5267 6.25006 30.5267Z" fill="#C47E4D"/>
<path d="M96.8748 75.0578H84.3749C78.3593 75.0578 73.4375 70.136 73.4375 64.1204C73.4375 58.1048 78.3593 53.183 84.3749 53.183H96.8748C98.5937 53.183 99.9999 54.5892 99.9999 56.308V71.933C99.9999 73.6516 98.5937 75.0578 96.8748 75.0578Z" fill="#A86A3F"/>
<path d="M84.3751 57.8704C87.8125 57.8704 90.6251 60.6828 90.6251 64.1204C90.6251 67.5581 87.8127 70.3705 84.3751 70.3705C80.9376 70.3705 78.125 67.5581 78.125 64.1204C78.125 60.6828 80.9376 57.8704 84.3751 57.8704Z" fill="#EFC75E"/>
<path d="M85.9376 68.8078C82.5001 68.8078 79.6875 65.9954 79.6875 62.5578C79.6875 61.2297 80.0781 59.9796 80.7813 58.964C79.1406 60.0578 78.125 61.9327 78.125 64.1203C78.125 67.5577 80.9374 70.3703 84.3751 70.3703C86.4845 70.3703 88.3594 69.2766 89.5313 67.714C88.5157 68.4172 87.2656 68.8078 85.9376 68.8078Z" fill="#D7B354"/>
<path d="M89.0626 91.4642H7.81258C3.51561 91.4642 0 87.9486 0 83.6516V86.7766C0 91.0736 3.51561 94.5892 7.81258 94.5892H89.0626C93.3596 94.5892 96.8752 91.0736 96.8752 86.7766V83.6516C96.875 87.9486 93.3594 91.4642 89.0626 91.4642Z" fill="#B27245"/>
<path d="M89.0626 30.5267H6.25006C2.81241 30.5267 0 27.7141 0 24.2766V27.4016C0 30.8391 2.81241 33.6517 6.25006 33.6517H89.0626C93.3596 33.6517 96.8752 37.1673 96.8752 41.4643V38.3393C96.875 34.0423 93.3594 30.5267 89.0626 30.5267Z" fill="#CA8B5F"/>
<path d="M50 115C61.0457 115 70 106.046 70 95C70 83.9543 61.0457 75 50 75C38.9543 75 30 83.9543 30 95C30 106.046 38.9543 115 50 115Z" fill="#00E59E"/>
<path d="M44.8896 104.022L55.1736 114.306C63.6909 112.035 70.0001 104.274 70.0001 95C70.0001 94.8108 70.0001 94.6215 70.0001 94.4322L61.9243 86.9874L44.8896 104.022Z" fill="#00D492"/>
<path d="M50.5045 99.4797C51.3878 100.363 51.3878 101.877 50.5045 102.761L48.6748 104.59C47.7915 105.473 46.2774 105.473 45.3941 104.59L37.3815 96.5144C36.4982 95.6312 36.4982 94.117 37.3815 93.2337L39.2111 91.404C40.0944 90.5208 41.6086 90.5208 42.4919 91.404L50.5045 99.4797Z" fill="white"/>
<path d="M57.5077 85.5364C58.391 84.6531 59.9051 84.6531 60.7884 85.5364L62.6181 87.366C63.5014 88.2493 63.5014 89.7635 62.6181 90.6468L48.738 104.464C47.8547 105.347 46.3405 105.347 45.4572 104.464L43.6275 102.634C42.7443 101.751 42.7443 100.237 43.6275 99.3534L57.5077 85.5364Z" fill="white"/>
</svg>
