<svg width="19" height="17" viewBox="0 0 19 17" fill="none" xmlns="http://www.w3.org/2000/svg">
<path d="M2.66667 1C1.75054 1 1 1.75054 1 2.66667V14.5417C1 15.3424 1.65763 16 2.45833 16H16.625C17.4257 16 18.0833 15.3424 18.0833 14.5417V4.95833C18.0833 4.15762 17.4257 3.5 16.625 3.5H15.5833V1.41667C15.5833 1.1985 15.3848 1.00002 15.1667 1H2.66667ZM2.66667 1.83333H14.75V3.5H2.66667C2.19779 3.5 1.83333 3.13554 1.83333 2.66667C1.83333 2.19779 2.19779 1.83333 2.66667 1.83333ZM1.83333 4.10546C2.07894 4.2485 2.36367 4.33333 2.66667 4.33333C7.35919 4.32917 12.5918 4.33333 16.625 4.33333C16.9785 4.33333 17.25 4.60487 17.25 4.95833V7.45833H11.2083C10.6385 7.45833 10.1667 7.93012 10.1667 8.5V11C10.1667 11.5699 10.6385 12.0417 11.2083 12.0417H17.25V14.5417C17.25 14.8951 16.9785 15.1667 16.625 15.1667H2.45833C2.10488 15.1667 1.83333 14.8951 1.83333 14.5417V4.10546ZM11.2083 8.29167H17.25V11.2083H11.2083C11.0857 11.2083 11 11.1226 11 11V8.5C11 8.37737 11.0857 8.29142 11.2083 8.29167ZM13.2917 8.91667C12.8314 8.91667 12.4583 9.28977 12.4583 9.75C12.4583 10.2102 12.8314 10.5833 13.2917 10.5833C13.7519 10.5833 14.125 10.2102 14.125 9.75C14.125 9.28977 13.7519 8.91667 13.2917 8.91667Z" fill="#748cad" stroke="#748cad" stroke-width="0.5"/>
</svg>
